<svg xmlns="http://www.w3.org/2000/svg" xmlns:xlink="http://www.w3.org/1999/xlink" width="500" zoomAndPan="magnify" viewBox="0 0 375 374.999991" height="500" preserveAspectRatio="xMidYMid meet" version="1.0"><defs><g/><clipPath id="fddc4e7332"><path d="M 156.199219 137.222656 L 218.800781 137.222656 L 218.800781 199.820312 L 156.199219 199.820312 Z M 156.199219 137.222656 " clip-rule="nonzero"/></clipPath><clipPath id="c1b40aead5"><path d="M 187.5 137.222656 C 170.214844 137.222656 156.199219 151.234375 156.199219 168.519531 C 156.199219 185.808594 170.214844 199.820312 187.5 199.820312 C 204.785156 199.820312 218.800781 185.808594 218.800781 168.519531 C 218.800781 151.234375 204.785156 137.222656 187.5 137.222656 " clip-rule="nonzero"/></clipPath><clipPath id="1c2b484d21"><path d="M 146.589844 130.386719 L 225.339844 130.386719 L 225.339844 200 L 146.589844 200 Z M 146.589844 130.386719 " clip-rule="nonzero"/></clipPath><clipPath id="8fe6a3bda4"><path d="M 165.9375 117.230469 L 192.183594 117.230469 L 192.183594 137.476562 L 165.9375 137.476562 Z M 165.9375 117.230469 " clip-rule="nonzero"/></clipPath><clipPath id="977e265edb"><path d="M 224 146 L 234 146 L 234 168 L 224 168 Z M 224 146 " clip-rule="nonzero"/></clipPath><clipPath id="9458637d77"><path d="M 240.71875 152.832031 L 228.679688 168.171875 L 216.878906 158.910156 L 228.921875 143.570312 Z M 240.71875 152.832031 " clip-rule="nonzero"/></clipPath><clipPath id="e1782c1cc3"><path d="M 240.71875 152.832031 L 228.679688 168.171875 L 216.878906 158.910156 L 228.921875 143.570312 Z M 240.71875 152.832031 " clip-rule="nonzero"/></clipPath><clipPath id="af2102124b"><path d="M 240.71875 152.832031 L 228.679688 168.171875 L 216.878906 158.910156 L 228.917969 143.570312 Z M 240.71875 152.832031 " clip-rule="nonzero"/></clipPath><clipPath id="8c195f9c8f"><path d="M 240.71875 152.832031 L 228.679688 168.167969 L 216.882812 158.910156 L 228.917969 143.570312 Z M 240.71875 152.832031 " clip-rule="nonzero"/></clipPath></defs><g clip-path="url(#fddc4e7332)"><g clip-path="url(#c1b40aead5)"><path fill="#ffe28b" d="M 156.199219 137.222656 L 218.800781 137.222656 L 218.800781 199.820312 L 156.199219 199.820312 Z M 156.199219 137.222656 " fill-opacity="1" fill-rule="nonzero"/></g></g><g clip-path="url(#1c2b484d21)"><path fill="#000000" d="M 180.007812 188.007812 C 180.515625 187.207031 180.992188 186.4375 181.539062 185.714844 C 178.042969 187.074219 173.753906 186.363281 171.554688 182.894531 C 168.464844 178.023438 171.730469 171.59375 174.648438 167.144531 C 174.539062 167.167969 174.425781 167.199219 174.308594 167.222656 C 170.191406 172.742188 167.089844 179.007812 162.015625 183.761719 C 162.496094 188.296875 165.0625 191.292969 169.277344 192.898438 C 170.417969 193.335938 171.566406 193.847656 172.769531 194.089844 C 174.921875 194.507812 175.746094 194.015625 176.847656 192.1875 C 177.734375 190.707031 179.058594 189.488281 180.007812 188.007812 Z M 182.453125 157.160156 C 182.707031 156.707031 182.664062 156.179688 182.398438 155.765625 C 181.355469 156.492188 180.28125 157.128906 179.070312 157.34375 C 179 157.71875 179.105469 158.105469 179.347656 158.429688 C 179.558594 158.722656 179.859375 158.519531 180.085938 158.429688 C 180.429688 158.289062 180.785156 158.171875 181.128906 158.03125 C 181.582031 157.851562 182.203125 157.609375 182.453125 157.160156 Z M 182.742188 189.503906 C 183.265625 188.464844 183.488281 187.113281 183.035156 186.007812 C 182.667969 186.441406 182.3125 186.898438 181.996094 187.390625 C 181.441406 188.277344 180.898438 189.261719 180.273438 190.167969 C 181.191406 190.90625 182.125 190.726562 182.742188 189.503906 Z M 182.078125 161.046875 C 182.734375 160.199219 185.039062 156.148438 183.101562 155.644531 C 183.359375 156.179688 183.40625 156.832031 183.117188 157.347656 C 182.707031 158.109375 181.90625 158.464844 181.128906 158.753906 C 180.585938 158.957031 179.570312 159.617188 179.03125 159.09375 C 178.570312 158.652344 178.347656 158.027344 178.390625 157.414062 C 178.296875 157.414062 178.203125 157.414062 178.109375 157.410156 C 178.078125 157.414062 178.046875 157.425781 178.007812 157.433594 C 174.496094 157.9375 171.828125 160.140625 169.097656 162.226562 C 169.0625 162.246094 169.027344 162.265625 168.996094 162.285156 C 168.976562 162.300781 168.953125 162.320312 168.921875 162.335938 C 165 164.675781 162.027344 168.277344 158.203125 170.726562 C 157.863281 171.039062 157.5 171.371094 157.105469 171.710938 C 155.375 173.222656 153.953125 174.558594 153.757812 174.371094 C 153.632812 174.242188 154.246094 173.28125 155.367188 172.109375 C 153.003906 172.835938 150.554688 173.265625 148.449219 174.609375 C 148.21875 177.945312 147.855469 181.050781 148.960938 184.308594 C 149.777344 186.710938 150.898438 189 151.886719 191.335938 C 153.976562 191.191406 155.921875 190.257812 157.980469 189.871094 C 157.957031 189.855469 157.933594 189.835938 157.910156 189.8125 C 157.617188 189.546875 157.359375 189.199219 157.175781 188.792969 C 157.046875 188.472656 156.976562 188.125 156.945312 187.773438 C 156.546875 187.597656 156.132812 187.425781 155.773438 187.160156 C 154.867188 186.609375 154.183594 185.863281 153.597656 185.175781 C 153.335938 184.8125 153.09375 184.457031 152.882812 184.117188 C 152.695312 183.757812 152.53125 183.421875 152.382812 183.117188 C 152.273438 182.785156 152.179688 182.488281 152.101562 182.226562 C 152.054688 182.09375 152.027344 181.972656 152.023438 181.859375 C 152.011719 181.75 152.003906 181.644531 151.992188 181.554688 C 151.960938 181.183594 151.972656 180.972656 152.03125 180.960938 C 152.089844 180.945312 152.199219 181.125 152.335938 181.472656 C 152.371094 181.5625 152.40625 181.65625 152.449219 181.761719 C 152.464844 181.8125 152.484375 181.867188 152.507812 181.925781 C 152.535156 181.976562 152.5625 182.03125 152.589844 182.089844 C 152.707031 182.308594 152.835938 182.558594 152.964844 182.835938 C 153.132812 183.101562 153.316406 183.394531 153.515625 183.710938 C 153.742188 184.003906 153.988281 184.3125 154.246094 184.640625 C 154.816406 185.234375 155.457031 185.898438 156.265625 186.386719 C 156.664062 186.691406 157.117188 186.839844 157.523438 187.054688 L 157.808594 187.207031 L 157.8125 187.476562 C 157.816406 187.835938 157.863281 188.179688 157.96875 188.480469 C 158.082031 188.777344 158.246094 189.035156 158.445312 189.25 C 158.730469 189.539062 159.066406 189.746094 159.402344 189.894531 C 160.589844 190.144531 161.777344 190.117188 162.960938 189.867188 C 161.691406 188.113281 160.863281 186.003906 160.636719 183.570312 C 160.605469 183.582031 160.578125 183.59375 160.546875 183.605469 C 159.773438 183.789062 159.003906 183.792969 158.332031 183.675781 C 157.652344 183.574219 157.09375 183.324219 156.640625 183.101562 C 156.195312 182.851562 155.863281 182.617188 155.671875 182.421875 C 155.472656 182.234375 155.378906 182.109375 155.414062 182.050781 C 155.445312 182 155.605469 182.027344 155.863281 182.121094 C 156.117188 182.226562 156.472656 182.355469 156.898438 182.507812 C 157.769531 182.796875 159.007812 183.035156 160.332031 182.714844 C 160.800781 182.589844 161.25 182.421875 161.660156 182.226562 C 166.355469 177.570312 169.328125 171.601562 173.285156 166.34375 C 172.707031 166.117188 172.253906 165.753906 171.984375 165.40625 C 171.730469 165.019531 171.671875 164.730469 171.761719 164.652344 C 171.855469 164.5625 172.117188 164.730469 172.464844 164.972656 C 172.796875 165.164062 173.261719 165.421875 173.832031 165.574219 C 174.179688 165.65625 174.519531 165.691406 174.824219 165.710938 C 175.914062 165.425781 176.949219 165.03125 177.914062 164.527344 C 177.972656 164.460938 178.046875 164.421875 178.117188 164.414062 C 179.617188 163.59375 180.957031 162.488281 182.078125 161.046875 Z M 188.433594 182.523438 C 188.167969 182.410156 187.886719 182.367188 187.714844 182.675781 C 187.515625 183.027344 187.4375 183.453125 187.398438 183.855469 C 187.367188 184.191406 187.363281 184.539062 187.347656 184.886719 C 187.609375 184.628906 187.84375 184.304688 188.035156 183.902344 C 188.234375 183.480469 188.378906 183.003906 188.433594 182.523438 Z M 186.933594 182.769531 C 187.226562 181.972656 187.785156 181.679688 188.453125 181.839844 C 188.410156 181.148438 188.140625 180.503906 187.550781 180.074219 C 186.988281 180.867188 186.4375 181.671875 185.933594 182.503906 C 185.390625 183.394531 184.714844 184.144531 184.039062 184.890625 C 184.910156 185.558594 185.847656 185.714844 186.640625 185.367188 C 186.765625 184.507812 186.625 183.605469 186.933594 182.769531 Z M 193.449219 166.488281 C 194.144531 164.089844 194.03125 161.1875 191.929688 159.457031 C 189.808594 157.703125 187.207031 157.921875 184.832031 158.902344 C 184.757812 159.15625 184.664062 159.40625 184.5625 159.636719 C 183.242188 162.601562 180.660156 164.789062 177.734375 166.101562 C 175.222656 170.046875 171.085938 175.085938 172.273438 179.699219 C 172.699219 181.351562 173.808594 183.160156 175.652344 183.5 C 176.808594 183.710938 179.414062 184.152344 180.441406 183.441406 C 181.648438 182.597656 182.988281 181.777344 183.925781 180.621094 C 184.804688 179.535156 185.503906 178.335938 186.347656 177.226562 C 188.867188 173.902344 192.261719 170.601562 193.449219 166.488281 Z M 194.453125 181.859375 C 194.082031 182.128906 193.4375 182.367188 193.386719 182.863281 C 193.4375 183.152344 193.03125 183.359375 192.804688 183.128906 C 192.796875 183.125 192.796875 183.121094 192.789062 183.117188 C 192.777344 183.101562 192.761719 183.097656 192.753906 183.078125 C 192.480469 182.667969 192.023438 182.292969 191.929688 181.78125 C 191.847656 181.355469 191.875 180.957031 192.113281 180.585938 C 192.445312 180.082031 193.027344 179.960938 193.5625 180.085938 C 193.269531 179.765625 192.984375 179.4375 192.722656 179.089844 C 191.746094 179.324219 191.269531 180.109375 191.46875 181.140625 C 191.621094 181.902344 191.933594 183.019531 192.664062 183.453125 C 193.917969 184.199219 194.441406 182.980469 194.453125 181.859375 Z M 194.144531 177.636719 C 194.492188 177.234375 195.089844 176.851562 195.320312 176.363281 C 195.332031 176.335938 193.929688 175.570312 193.59375 176.203125 C 193.273438 176.828125 193.523438 177.5 193.808594 178.113281 C 193.910156 177.949219 194.019531 177.789062 194.144531 177.636719 Z M 194.640625 167.433594 C 195.222656 165.800781 195.460938 164.136719 195.054688 162.5 C 193.863281 157.726562 189.566406 155.777344 185.117188 157.367188 C 185.097656 157.617188 185.066406 157.859375 185.027344 158.105469 C 186.910156 157.398438 189.113281 157.042969 190.941406 157.996094 C 193.070312 159.097656 194.609375 161.394531 194.546875 163.855469 C 194.414062 169.800781 189.277344 173.976562 186.21875 178.566406 C 185.191406 180.125 184.183594 181.453125 182.71875 182.632812 C 181.875 183.308594 180.621094 184.53125 179.441406 184.492188 C 176.855469 184.421875 173.6875 184.367188 172.316406 181.703125 C 169.679688 176.574219 173.753906 171.0625 176.664062 166.546875 C 176.324219 166.671875 175.980469 166.785156 175.632812 166.890625 C 173.1875 170.496094 169.871094 176.082031 171.183594 180.472656 C 172.722656 185.636719 178.648438 186.90625 182.71875 184.375 C 182.753906 184.34375 182.785156 184.308594 182.824219 184.277344 C 184.175781 183.015625 184.957031 181.40625 186.011719 179.910156 C 187.109375 178.355469 188.277344 176.855469 189.363281 175.292969 C 191.164062 172.691406 192.929688 170.085938 194.640625 167.433594 Z M 195.058594 175.476562 C 195.308594 175.582031 195.597656 175.726562 195.796875 175.917969 C 195.550781 175.078125 195.214844 174.230469 195.082031 173.46875 C 193.683594 173.375 192.539062 175.222656 192.671875 176.671875 C 192.703125 176.664062 192.726562 176.671875 192.753906 176.675781 C 192.773438 176.449219 192.824219 176.222656 192.9375 176.003906 C 193.398438 175.121094 194.238281 175.132812 195.058594 175.476562 Z M 195.691406 169.082031 C 195.757812 168.882812 195.679688 168.773438 195.554688 168.707031 C 195.238281 169.234375 194.90625 169.75 194.539062 170.253906 C 194.546875 170.289062 194.5625 170.324219 194.570312 170.367188 C 194.578125 170.441406 194.59375 170.515625 194.613281 170.589844 C 194.769531 170.335938 194.980469 170.101562 195.148438 169.886719 C 195.332031 169.652344 195.597656 169.375 195.691406 169.082031 Z M 194.816406 179.46875 C 196.175781 178.882812 196.253906 177.789062 195.972656 176.570312 C 195.945312 176.640625 195.910156 176.714844 195.851562 176.792969 C 195.378906 177.429688 194.414062 178.003906 194.234375 178.824219 C 194.421875 179.042969 194.621094 179.253906 194.816406 179.46875 Z M 197.042969 169.269531 C 197.054688 168.394531 196.964844 167.558594 196.679688 166.757812 C 196.414062 167.222656 196.148438 167.6875 195.886719 168.140625 C 196.320312 168.40625 196.5625 168.835938 196.277344 169.425781 C 196.089844 169.804688 195.816406 170.128906 195.554688 170.453125 C 195.375 170.683594 195.039062 171.015625 195.046875 171.328125 C 195.046875 171.363281 195.035156 171.394531 195.027344 171.425781 C 195.460938 171.949219 196.097656 172.109375 196.589844 171.160156 C 196.890625 170.574219 197.03125 169.929688 197.042969 169.269531 Z M 201.234375 153.8125 C 202.351562 152.917969 203.101562 151.769531 203.542969 150.328125 C 202.808594 151.410156 201.925781 152.585938 201.234375 153.8125 Z M 209.722656 136.984375 C 210.902344 136.609375 209.785156 135.015625 209.359375 134.484375 C 208.589844 133.519531 207.742188 132.71875 206.585938 132.300781 C 206.492188 132.269531 204.851562 132.128906 205.113281 132.527344 C 205.285156 132.785156 205.484375 133.003906 205.664062 133.179688 C 205.957031 133.460938 206.203125 133.671875 206.386719 133.84375 C 206.761719 134.179688 206.882812 134.355469 206.828125 134.433594 C 206.773438 134.511719 206.566406 134.480469 206.109375 134.230469 C 205.886719 134.109375 205.597656 133.925781 205.242188 133.644531 C 205.125 133.542969 205 133.433594 204.871094 133.296875 C 204.851562 133.445312 204.84375 133.609375 204.847656 133.789062 C 204.859375 134.195312 204.527344 134.425781 204.171875 134.46875 C 203.882812 134.75 203.597656 135.035156 203.308594 135.320312 C 203.441406 135.574219 203.601562 135.808594 203.777344 136.011719 C 204.054688 136.328125 204.34375 136.59375 204.617188 136.816406 C 205.167969 137.269531 205.644531 137.566406 206.007812 137.796875 C 206.738281 138.246094 207.027344 138.40625 206.992188 138.5 C 206.96875 138.582031 206.609375 138.578125 205.78125 138.222656 C 205.375 138.035156 204.847656 137.769531 204.234375 137.3125 C 203.925781 137.085938 203.597656 136.804688 203.28125 136.449219 C 203.21875 136.382812 203.160156 136.308594 203.101562 136.238281 C 201.320312 137.710938 200.171875 139.8125 198.671875 141.5625 C 196.859375 143.6875 195.046875 145.800781 192.976562 147.675781 C 191.535156 148.988281 190.007812 150.875 188.027344 151.320312 C 186.027344 151.777344 184.792969 152.933594 183.597656 154.371094 C 184.585938 154.695312 185.019531 155.605469 185.109375 156.652344 C 189.035156 155.351562 193.945312 156.578125 195.324219 160.945312 C 195.878906 162.699219 195.898438 164.371094 195.574219 165.976562 C 196.519531 164.484375 197.5 163.285156 198.128906 161.589844 C 198.78125 159.839844 198.414062 158.132812 198.832031 156.382812 C 199.574219 153.28125 201.847656 151.074219 203.175781 148.265625 C 203.902344 146.738281 204.425781 145.058594 205.398438 143.660156 C 206.503906 142.050781 207.703125 140.566406 208.335938 138.695312 C 208.441406 138.390625 208.675781 138.21875 208.992188 138.195312 C 209.078125 138.070312 209.164062 137.945312 209.253906 137.820312 C 209.226562 137.710938 209.230469 137.613281 209.253906 137.511719 C 208.769531 137.191406 208.351562 136.90625 207.996094 136.660156 C 207.511719 136.289062 207.152344 135.976562 206.882812 135.730469 C 206.339844 135.25 206.175781 135.015625 206.238281 134.945312 C 206.292969 134.875 206.566406 134.96875 207.167969 135.351562 C 207.476562 135.539062 207.859375 135.808594 208.351562 136.144531 C 208.742188 136.382812 209.1875 136.667969 209.699219 137 C 209.710938 137 209.714844 136.988281 209.722656 136.984375 Z M 211.574219 167.804688 C 211.292969 167.082031 211.074219 166.332031 210.9375 165.601562 C 206.734375 164.585938 202.5 163.425781 198.179688 164.410156 C 198.03125 164.644531 197.875 164.878906 197.722656 165.113281 C 197.71875 165.1875 197.714844 165.261719 197.710938 165.339844 C 202.503906 165.089844 207.195312 165.820312 211.574219 167.804688 Z M 212.167969 169.128906 C 212.101562 168.996094 212.03125 168.859375 211.96875 168.722656 C 211.953125 168.714844 211.941406 168.714844 211.925781 168.710938 C 207.5 166.554688 202.714844 165.773438 197.835938 166.015625 C 198.632812 167.929688 198.816406 170.671875 197.484375 172.230469 C 197.125 172.65625 196.753906 172.925781 196.382812 173.066406 C 196.488281 174.640625 197.480469 176.046875 197.5 177.632812 C 197.53125 179.074219 196.796875 179.960938 195.636719 180.5625 C 196.0625 181.828125 195.699219 183.433594 194.863281 184.359375 C 199.550781 186.0625 204.554688 186.441406 209.492188 186.878906 C 210.121094 180.921875 211.511719 175.078125 212.167969 169.128906 Z M 213.628906 171.523438 C 213.316406 171.101562 213.011719 170.640625 212.71875 170.148438 C 212.011719 175.882812 210.695312 181.53125 210.121094 187.285156 C 210.097656 187.578125 209.78125 187.671875 209.59375 187.566406 C 204.496094 187.113281 199.324219 186.742188 194.5 184.941406 C 194.386719 185.835938 194.21875 186.722656 194.035156 187.601562 C 196.871094 188.148438 199.503906 189.316406 202.300781 190.003906 C 205.023438 190.667969 207.710938 190.386719 210.449219 190.714844 C 211.15625 184.304688 212.195312 177.8125 213.628906 171.523438 Z M 214.550781 172.644531 C 214.425781 172.507812 214.292969 172.359375 214.167969 172.203125 C 212.78125 178.394531 211.765625 184.78125 211.085938 191.074219 C 211.054688 191.300781 210.855469 191.40625 210.675781 191.390625 C 210.632812 191.398438 210.585938 191.40625 210.542969 191.398438 C 207.433594 190.980469 204.460938 191.382812 201.402344 190.457031 C 198.898438 189.703125 196.46875 188.761719 193.898438 188.261719 C 193.65625 189.457031 193.417969 190.648438 193.320312 191.859375 C 193.136719 194.230469 194.058594 195.417969 196.28125 196.226562 C 199.507812 197.402344 203.238281 197.9375 206.644531 198.132812 C 207.871094 198.203125 209.546875 198.476562 210.71875 197.992188 C 212.351562 197.316406 212.996094 195.554688 212.976562 193.917969 C 212.945312 192.003906 212.355469 190.367188 212.664062 188.425781 C 213.113281 185.667969 213.117188 182.875 213.570312 180.125 C 213.980469 177.632812 214.527344 175.175781 214.550781 172.644531 Z M 213.78125 159.441406 C 214.222656 159.25 214.632812 159.210938 215.007812 159.28125 C 214.6875 156.8125 212.476562 155.558594 212.660156 152.804688 C 212.871094 149.566406 213.136719 146.324219 213.289062 143.082031 C 213.347656 141.855469 213.050781 140.023438 213.339844 138.742188 C 212.738281 138.863281 212.292969 138.847656 212.007812 138.824219 C 211.636719 138.765625 211.5 138.683594 211.503906 138.589844 C 211.507812 138.492188 211.648438 138.40625 211.984375 138.34375 C 212.3125 138.265625 212.839844 138.199219 213.59375 137.976562 C 213.824219 137.382812 214.109375 136.621094 213.894531 136.132812 C 213.804688 135.929688 213.644531 135.660156 213.644531 135.425781 C 213.644531 135.175781 213.792969 134.90625 213.945312 134.71875 C 214.78125 133.703125 212.855469 132.855469 212.210938 132.816406 C 211.3125 132.765625 210.496094 132.722656 209.675781 132.839844 C 210.003906 133.125 210.308594 133.421875 210.578125 133.730469 C 210.957031 133.773438 211.277344 133.808594 211.554688 133.851562 C 211.890625 133.882812 212.152344 133.910156 212.355469 133.949219 C 212.757812 134.027344 212.914062 134.113281 212.914062 134.207031 C 212.914062 134.304688 212.757812 134.386719 212.34375 134.429688 C 212.136719 134.453125 211.859375 134.476562 211.511719 134.476562 C 211.394531 134.472656 211.269531 134.460938 211.136719 134.453125 C 212.078125 135.851562 212.21875 137.308594 210.613281 138.082031 C 210.609375 138.820312 210.21875 139.296875 209.476562 139.476562 C 208.765625 141.285156 207.578125 142.683594 206.566406 144.339844 C 206.238281 144.875 205.957031 145.429688 205.695312 145.996094 C 205.011719 147.867188 205.222656 150.25 204.34375 152.074219 C 203.476562 153.882812 202.148438 155.09375 200.355469 155.972656 C 200.347656 155.972656 200.335938 155.980469 200.324219 155.984375 C 200.3125 156.03125 200.296875 156.070312 200.289062 156.113281 C 199.808594 158.097656 200.144531 159.980469 199.4375 161.949219 C 199.214844 162.558594 198.945312 163.101562 198.652344 163.617188 C 202.773438 162.867188 206.808594 163.902344 210.835938 164.878906 C 210.609375 162.609375 211.3125 160.515625 213.78125 159.441406 Z M 215.695312 165.179688 C 216.046875 165.777344 216.710938 165.785156 216.886719 165.144531 C 216.554688 164.578125 216.28125 163.992188 216.128906 163.347656 C 216.070312 163.089844 215.976562 162.777344 215.847656 162.460938 C 214.726562 162.601562 215.359375 164.601562 215.695312 165.179688 Z M 219.867188 194.402344 C 221.757812 193.054688 224.273438 190.027344 223.742188 187.539062 C 223.714844 187.410156 223.699219 187.28125 223.675781 187.148438 C 223.285156 187.8125 222.84375 188.347656 222.425781 188.734375 C 222.28125 188.894531 222.121094 188.992188 221.988281 189.089844 C 221.851562 189.183594 221.730469 189.261719 221.632812 189.320312 C 221.421875 189.4375 221.289062 189.480469 221.246094 189.433594 C 221.203125 189.386719 221.257812 189.257812 221.386719 189.058594 C 221.449219 188.960938 221.535156 188.84375 221.640625 188.714844 C 221.738281 188.585938 221.878906 188.445312 221.972656 188.277344 C 222.421875 187.644531 222.992188 186.710938 223.425781 185.59375 C 223.492188 185.40625 223.550781 185.21875 223.605469 185.03125 C 223.660156 183.992188 223.765625 182.945312 223.640625 181.878906 C 223.363281 179.472656 222.617188 176.671875 221.597656 174.464844 C 220.839844 172.808594 220.347656 170.964844 219.558594 169.304688 C 219.335938 169.53125 219.078125 169.65625 218.867188 169.695312 C 218.65625 169.730469 218.507812 169.675781 218.464844 169.582031 C 218.421875 169.488281 218.503906 169.351562 218.640625 169.207031 C 218.746094 169.070312 218.902344 168.914062 219.046875 168.738281 C 219.097656 168.675781 219.132812 168.621094 219.171875 168.5625 C 219.078125 168.390625 218.988281 168.222656 218.882812 168.058594 C 218.40625 167.300781 217.828125 166.582031 217.320312 165.832031 C 217.15625 166.074219 216.917969 166.25 216.578125 166.320312 C 216.042969 166.425781 215.453125 166.101562 215.183594 165.644531 C 214.585938 164.625 214.03125 162.222656 215.558594 161.824219 C 215.027344 160.863281 214.210938 160.199219 213.21875 161.453125 C 212.410156 162.476562 212.085938 163.796875 212.21875 165.089844 C 212.476562 167.679688 213.769531 169.847656 215.53125 171.707031 C 215.683594 171.773438 215.804688 171.894531 215.867188 172.066406 C 215.917969 172.089844 215.964844 172.125 216.019531 172.148438 C 216.636719 172.472656 217.222656 172.707031 217.65625 172.847656 C 218.074219 172.996094 218.382812 173.054688 218.390625 173.164062 C 218.398438 173.261719 218.105469 173.402344 217.570312 173.378906 C 217.109375 173.367188 216.511719 173.214844 215.902344 172.9375 C 215.828125 175.730469 215.097656 178.429688 214.769531 181.195312 C 214.75 182.035156 214.75 182.96875 214.800781 183.957031 C 214.855469 184.835938 214.957031 185.664062 215.097656 186.410156 C 215.265625 187.140625 215.429688 187.808594 215.65625 188.332031 C 216.054688 189.367188 216.519531 189.992188 216.398438 190.074219 C 216.320312 190.132812 215.703125 189.714844 215.074219 188.605469 C 214.757812 188.085938 214.515625 187.410156 214.292969 186.648438 C 214.234375 187.101562 214.171875 187.554688 214.097656 188.007812 C 213.820312 189.726562 214.121094 191.082031 214.269531 192.769531 C 214.371094 193.988281 214.285156 195.195312 213.898438 196.296875 C 215.9375 196.027344 218.234375 195.566406 219.867188 194.402344 Z M 224.957031 184.804688 C 224.804688 186.160156 225.367188 187.480469 225.167969 188.800781 C 224.257812 194.761719 218.363281 197.117188 213.152344 197.738281 C 212.960938 198.011719 212.742188 198.277344 212.496094 198.527344 C 210.910156 200.09375 207.742188 199.609375 205.800781 199.421875 C 202.125 199.0625 197.28125 198.78125 194.113281 196.667969 C 190.199219 194.0625 192.539062 188.980469 193.125 185.070312 C 192.714844 185.023438 192.269531 184.847656 191.804688 184.488281 C 189.84375 182.996094 189.324219 179.183594 191.636719 178.03125 C 190.585938 176.101562 191.957031 173.054688 194.019531 172.285156 C 193.835938 172.0625 193.675781 171.796875 193.542969 171.511719 C 192.097656 173.339844 190.960938 175.417969 189.574219 177.300781 C 189.167969 177.855469 188.753906 178.414062 188.34375 178.972656 C 190.183594 180.308594 190.175781 183.109375 189.003906 184.945312 C 187.886719 186.699219 186.21875 187.246094 184.578125 186.691406 C 184.761719 188.136719 184.367188 189.679688 183.492188 190.828125 C 182.359375 192.304688 180.746094 192.269531 179.457031 191.25 C 179.289062 191.441406 179.117188 191.625 178.941406 191.800781 C 177.960938 192.75 177.644531 194.511719 176.316406 195.121094 C 175.25 195.609375 174.261719 195.675781 173.109375 195.519531 C 169.457031 195.03125 166.195312 193.476562 163.914062 191.027344 C 163.894531 191.035156 163.878906 191.042969 163.859375 191.046875 C 162.140625 191.507812 160.382812 191.558594 158.65625 191.121094 C 158.640625 191.121094 158.625 191.128906 158.609375 191.128906 C 156.214844 191.421875 154.054688 192.617188 151.621094 192.710938 C 151.488281 192.714844 151.375 192.6875 151.285156 192.636719 C 151.082031 192.582031 150.898438 192.453125 150.796875 192.210938 C 149.585938 189.265625 147.953125 186.371094 147.253906 183.238281 C 146.585938 180.246094 146.90625 177.429688 147.109375 174.40625 C 147.113281 174.34375 147.128906 174.285156 147.144531 174.230469 C 147.140625 174.015625 147.226562 173.804688 147.445312 173.652344 C 149.941406 171.90625 152.953125 171.53125 155.773438 170.554688 C 155.773438 170.550781 155.78125 170.546875 155.785156 170.542969 C 160.492188 168.191406 163.75 163.84375 168.246094 161.164062 C 168.277344 161.144531 168.304688 161.128906 168.339844 161.125 C 168.359375 161.09375 168.382812 161.074219 168.410156 161.050781 C 171.152344 158.96875 173.855469 156.789062 177.316406 156.183594 C 177.425781 156.082031 177.574219 156.03125 177.773438 156.046875 C 179.316406 156.1875 180.539062 155.425781 181.75 154.574219 C 181.773438 154.507812 181.808594 154.441406 181.855469 154.378906 C 182.964844 152.976562 184.144531 151.265625 185.871094 150.5625 C 187.269531 149.984375 188.460938 149.890625 189.660156 148.824219 C 190.644531 147.953125 191.644531 147.089844 192.597656 146.183594 C 194.625 144.246094 196.503906 142.128906 198.273438 139.957031 C 199.496094 138.460938 200.457031 136.789062 201.898438 135.496094 C 201.558594 134.238281 202.273438 133.539062 203.507812 133.230469 C 203.691406 130.40625 206.050781 130.546875 208.210938 131.800781 C 210.132812 131.136719 213.824219 130.800781 214.964844 132.757812 C 215.34375 133.402344 215.597656 134.832031 215.066406 135.480469 C 215.109375 135.425781 215.40625 137.28125 215.21875 137.738281 C 214.332031 139.863281 214.695312 142.550781 214.519531 144.839844 C 214.363281 146.894531 214.378906 148.964844 214.164062 151.011719 C 213.9375 153.167969 213.914062 154.507812 215.4375 156.191406 C 216.296875 157.140625 216.386719 158.621094 216.398438 159.828125 C 216.398438 159.953125 216.375 160.050781 216.332031 160.140625 C 216.742188 160.632812 217.03125 161.269531 217.175781 161.886719 C 217.914062 165.019531 220.277344 167.296875 221.390625 170.320312 C 222.597656 173.59375 224.160156 176.789062 224.761719 180.261719 C 225.023438 181.769531 225.132812 183.277344 224.957031 184.804688 Z M 194.128906 181.25 C 194.113281 181.28125 194.058594 181.144531 194.003906 181.097656 C 193.886719 180.980469 193.765625 180.875 193.613281 180.808594 C 193.367188 180.691406 192.992188 180.632812 192.773438 180.855469 C 192.335938 181.292969 192.613281 181.78125 192.9375 182.210938 C 193.042969 182.0625 193.171875 181.921875 193.335938 181.800781 C 193.484375 181.691406 194.078125 181.445312 194.128906 181.25 " fill-opacity="1" fill-rule="nonzero"/></g><path fill="#000000" d="M 213.113281 158.050781 C 213.109375 158.289062 213.136719 158.503906 213.082031 158.644531 C 213.003906 158.941406 212.9375 159.101562 212.886719 159.09375 C 212.835938 159.089844 212.800781 158.917969 212.789062 158.613281 C 212.796875 158.457031 212.71875 158.308594 212.695312 158.121094 C 212.679688 158.03125 212.617188 157.933594 212.585938 157.828125 C 212.5625 157.777344 212.539062 157.726562 212.523438 157.675781 C 212.488281 157.621094 212.460938 157.570312 212.429688 157.515625 C 212.195312 157.074219 211.765625 156.601562 211.402344 155.914062 C 211.363281 155.832031 211.320312 155.742188 211.277344 155.65625 L 211.253906 155.609375 L 211.242188 155.566406 L 211.238281 155.554688 L 211.214844 155.488281 L 211.179688 155.355469 C 211.125 155.175781 211.070312 154.996094 211.011719 154.808594 C 210.917969 154.429688 210.859375 153.988281 210.796875 153.558594 C 210.644531 151.867188 210.8125 150.371094 210.925781 149.300781 C 211.050781 148.230469 211.136719 147.574219 211.25 147.566406 C 211.351562 147.566406 211.453125 148.246094 211.460938 149.328125 C 211.484375 150.40625 211.410156 151.894531 211.554688 153.484375 C 211.613281 153.871094 211.648438 154.230469 211.734375 154.605469 C 211.777344 154.789062 211.828125 154.976562 211.878906 155.160156 L 211.910156 155.292969 L 211.925781 155.355469 L 211.925781 155.367188 L 211.941406 155.382812 C 211.972656 155.460938 212.003906 155.535156 212.035156 155.613281 C 212.300781 156.210938 212.703125 156.738281 212.914062 157.28125 C 212.941406 157.347656 212.96875 157.414062 212.996094 157.480469 C 213.011719 157.550781 213.027344 157.617188 213.046875 157.679688 C 213.066406 157.808594 213.113281 157.921875 213.113281 158.050781 " fill-opacity="1" fill-rule="nonzero"/><path fill="#000000" d="M 209.386719 195.488281 C 211.015625 195.554688 212.03125 195.589844 212.039062 195.707031 C 212.039062 195.796875 211.027344 195.960938 209.382812 196.027344 C 207.734375 196.085938 205.449219 195.984375 202.949219 195.652344 C 200.457031 195.285156 198.234375 194.761719 196.648438 194.269531 C 195.078125 193.777344 194.148438 193.367188 194.175781 193.277344 C 194.203125 193.164062 195.199219 193.394531 196.796875 193.753906 C 198.382812 194.101562 200.597656 194.535156 203.054688 194.898438 C 205.519531 195.222656 207.761719 195.40625 209.386719 195.488281 " fill-opacity="1" fill-rule="nonzero"/><path fill="#000000" d="M 198.792969 142.429688 C 198.875 142.503906 198.382812 143.203125 197.535156 144.28125 C 196.6875 145.367188 195.503906 146.859375 194.046875 148.402344 C 192.585938 149.945312 191.046875 151.132812 189.871094 151.894531 C 188.691406 152.605469 187.910156 152.964844 187.863281 152.882812 C 187.800781 152.789062 188.480469 152.265625 189.578125 151.445312 C 190.636719 150.59375 192.0625 149.386719 193.496094 147.875 C 194.921875 146.359375 196.171875 144.929688 197.125 143.929688 C 198.082031 142.9375 198.714844 142.363281 198.792969 142.429688 " fill-opacity="1" fill-rule="nonzero"/><path fill="#000000" d="M 171.695312 191.214844 C 172.761719 191.699219 173.414062 192.046875 173.375 192.144531 C 173.332031 192.242188 172.628906 192.070312 171.5 191.71875 C 170.378906 191.351562 168.8125 190.8125 167.238281 189.828125 C 166.457031 189.332031 165.777344 188.738281 165.242188 188.125 C 165.117188 187.972656 164.988281 187.820312 164.867188 187.671875 C 164.757812 187.507812 164.652344 187.355469 164.554688 187.203125 C 164.347656 186.90625 164.226562 186.585938 164.085938 186.3125 C 163.855469 185.746094 163.710938 185.261719 163.683594 184.941406 C 163.632812 184.609375 163.632812 184.421875 163.683594 184.402344 C 163.730469 184.390625 163.828125 184.550781 163.964844 184.855469 C 164.085938 185.171875 164.300781 185.582031 164.570312 186.078125 C 164.726562 186.3125 164.863281 186.589844 165.078125 186.847656 C 165.175781 186.980469 165.28125 187.113281 165.390625 187.253906 C 165.511719 187.386719 165.632812 187.519531 165.757812 187.65625 C 166.277344 188.191406 166.914062 188.714844 167.648438 189.183594 C 169.128906 190.109375 170.625 190.726562 171.695312 191.214844 " fill-opacity="1" fill-rule="nonzero"/><g clip-path="url(#8fe6a3bda4)"><path fill="#000000" d="M 192.082031 124.628906 L 192.183594 118.136719 C 192.191406 117.644531 191.800781 117.238281 191.3125 117.230469 C 191.308594 117.230469 191.304688 117.230469 191.300781 117.230469 C 190.820312 117.230469 190.425781 117.621094 190.417969 118.109375 L 190.3125 124.601562 C 190.304688 125.09375 190.695312 125.5 191.183594 125.507812 C 191.1875 125.507812 191.191406 125.507812 191.199219 125.507812 C 191.679688 125.507812 192.074219 125.117188 192.082031 124.628906 Z M 182.421875 127.425781 C 182.816406 127.132812 182.898438 126.574219 182.609375 126.175781 L 178.785156 120.941406 C 178.496094 120.542969 177.941406 120.460938 177.550781 120.753906 C 177.15625 121.046875 177.074219 121.609375 177.363281 122.003906 L 181.1875 127.238281 C 181.359375 127.476562 181.628906 127.601562 181.898438 127.601562 C 182.082031 127.601562 182.265625 127.546875 182.421875 127.425781 Z M 175.316406 137.476562 C 175.191406 137.476562 175.0625 137.449219 174.9375 137.390625 C 171.921875 135.945312 169.015625 134.210938 166.304688 132.238281 C 165.90625 131.953125 165.816406 131.390625 166.101562 130.992188 C 166.386719 130.589844 166.9375 130.496094 167.335938 130.785156 C 169.960938 132.695312 172.773438 134.375 175.695312 135.773438 C 176.136719 135.984375 176.324219 136.519531 176.113281 136.964844 C 175.964844 137.289062 175.648438 137.476562 175.316406 137.476562 " fill-opacity="1" fill-rule="nonzero"/></g><g clip-path="url(#977e265edb)"><g clip-path="url(#9458637d77)"><g clip-path="url(#e1782c1cc3)"><g clip-path="url(#af2102124b)"><g clip-path="url(#8c195f9c8f)"><path fill="#000000" d="M 224.417969 164.726562 L 228.152344 167.753906 C 228.4375 167.984375 228.851562 167.941406 229.078125 167.660156 C 229.082031 167.660156 229.085938 167.65625 229.085938 167.652344 C 229.308594 167.371094 229.257812 166.960938 228.976562 166.734375 L 225.242188 163.707031 C 224.960938 163.476562 224.542969 163.515625 224.316406 163.796875 C 224.3125 163.800781 224.3125 163.804688 224.308594 163.804688 C 224.085938 164.085938 224.132812 164.496094 224.417969 164.726562 Z M 227.214844 157.800781 C 227.207031 158.164062 227.496094 158.46875 227.859375 158.480469 L 232.664062 158.640625 C 233.027344 158.652344 233.332031 158.371094 233.339844 158.003906 C 233.347656 157.640625 233.058594 157.335938 232.695312 157.324219 L 227.890625 157.164062 C 227.671875 157.15625 227.476562 157.257812 227.351562 157.414062 C 227.269531 157.523438 227.21875 157.65625 227.214844 157.800781 Z M 224.617188 149.050781 C 224.675781 148.976562 224.75 148.914062 224.839844 148.871094 C 227.066406 147.769531 229.410156 146.863281 231.804688 146.179688 C 232.152344 146.082031 232.519531 146.285156 232.625 146.632812 C 232.726562 146.984375 232.527344 147.347656 232.179688 147.449219 C 229.863281 148.109375 227.59375 148.984375 225.4375 150.050781 C 225.113281 150.214844 224.714844 150.078125 224.550781 149.753906 C 224.429688 149.515625 224.464844 149.246094 224.617188 149.050781 " fill-opacity="1" fill-rule="nonzero"/></g></g></g></g></g><g fill="#000000" fill-opacity="1"><g transform="translate(44.63672, 224.771016)"><g><path d="M 15.707031 0.476562 C 21.136719 0.476562 24.75 -0.726562 27.914062 -3.023438 C 27.71875 -4.144531 27.4375 -5.710938 27.605469 -7.363281 C 24.105469 -4.058594 20.214844 -2.910156 16.238281 -2.910156 C 9.519531 -2.910156 6.160156 -5.992188 6.160156 -10.527344 C 6.160156 -15.34375 10.136719 -18.058594 16.40625 -18.03125 C 19.207031 -18.003906 23.097656 -17.332031 27.605469 -14.613281 C 27.410156 -16.238281 27.410156 -17.441406 27.605469 -19.066406 C 23.125 -20.914062 19.402344 -21.390625 16.15625 -21.390625 C 7.054688 -21.390625 1.289062 -17.609375 1.289062 -10.527344 C 1.289062 -3.75 6.496094 0.476562 15.707031 0.476562 Z M 15.707031 0.476562 "/></g></g></g><g fill="#000000" fill-opacity="1"><g transform="translate(74.060703, 224.771016)"><g><path d="M 19.765625 -5.207031 C 17.945312 -3.722656 14.476562 -2.828125 11.785156 -2.773438 C 7.753906 -2.714844 5.992188 -4.394531 5.628906 -7 C 8.511719 -7.082031 13.296875 -7.082031 19.652344 -6.972656 C 20.242188 -12.597656 15.847656 -15.59375 10.246094 -15.59375 C 4.5625 -15.59375 0.980469 -12.625 0.980469 -7.585938 C 0.980469 -2.605469 4.480469 0.390625 11.28125 0.390625 C 14.277344 0.390625 17.386719 -0.195312 19.765625 -1.371094 C 19.515625 -2.40625 19.515625 -4.144531 19.765625 -5.207031 Z M 10.246094 -12.597656 C 12.933594 -12.597656 14.753906 -11.113281 15.089844 -8.34375 C 11.816406 -8.289062 8.257812 -8.289062 5.570312 -8.371094 C 5.710938 -11.144531 7.449219 -12.597656 10.246094 -12.597656 Z M 10.246094 -12.597656 "/></g></g></g><g fill="#000000" fill-opacity="1"><g transform="translate(95.169821, 224.771016)"><g><path d="M 6.972656 0 C 6.523438 -1.960938 6.523438 -3.722656 6.523438 -5.683594 C 6.523438 -9.183594 8.148438 -11.199219 11.339844 -11.199219 C 12.039062 -11.199219 12.933594 -11.058594 13.972656 -10.75 C 13.605469 -12.402344 13.605469 -14.109375 13.972656 -15.285156 C 11.339844 -15.929688 8.007812 -14.277344 6.46875 -9.492188 L 6.101562 -9.492188 C 6.1875 -11.589844 6.382812 -13.355469 6.804688 -15.539062 C 5.597656 -15.007812 3.554688 -14.671875 1.734375 -14.558594 C 2.378906 -9.660156 2.378906 -4.648438 1.734375 0 Z M 6.972656 0 "/></g></g></g><g fill="#000000" fill-opacity="1"><g transform="translate(109.587854, 224.771016)"><g><path d="M 14.109375 -15.0625 C 12.710938 -11.339844 11.3125 -6.691406 9.660156 -2.574219 C 8.007812 -6.636719 6.578125 -11.339844 5.152344 -15.0625 C 3.640625 -14.726562 1.875 -14.78125 0.0546875 -15.0625 C 2.714844 -9.855469 4.730469 -5.09375 6.636719 0 L 12.515625 0 C 14.699219 -5.570312 16.378906 -9.828125 19.09375 -15.0625 C 17.300781 -14.726562 15.679688 -14.78125 14.109375 -15.0625 Z M 14.109375 -15.0625 "/></g></g></g><g fill="#000000" fill-opacity="1"><g transform="translate(128.73724, 224.771016)"><g><path d="M 19.765625 -5.207031 C 17.945312 -3.722656 14.476562 -2.828125 11.785156 -2.773438 C 7.753906 -2.714844 5.992188 -4.394531 5.628906 -7 C 8.511719 -7.082031 13.296875 -7.082031 19.652344 -6.972656 C 20.242188 -12.597656 15.847656 -15.59375 10.246094 -15.59375 C 4.5625 -15.59375 0.980469 -12.625 0.980469 -7.585938 C 0.980469 -2.605469 4.480469 0.390625 11.28125 0.390625 C 14.277344 0.390625 17.386719 -0.195312 19.765625 -1.371094 C 19.515625 -2.40625 19.515625 -4.144531 19.765625 -5.207031 Z M 10.246094 -12.597656 C 12.933594 -12.597656 14.753906 -11.113281 15.089844 -8.34375 C 11.816406 -8.289062 8.257812 -8.289062 5.570312 -8.371094 C 5.710938 -11.144531 7.449219 -12.597656 10.246094 -12.597656 Z M 10.246094 -12.597656 "/></g></g></g><g fill="#000000" fill-opacity="1"><g transform="translate(149.846358, 224.771016)"><g><path d="M 4.507812 -17.246094 C 6.605469 -17.246094 7.644531 -17.835938 7.644531 -19.179688 C 7.644531 -20.523438 6.605469 -21.167969 4.507812 -21.167969 C 2.605469 -21.167969 1.652344 -20.523438 1.652344 -19.179688 C 1.652344 -17.835938 2.605469 -17.246094 4.507812 -17.246094 Z M 0.421875 6.019531 C 3.613281 6.019531 6.664062 4.535156 6.664062 0.28125 C 6.664062 -8.121094 6.859375 -12.320312 7.027344 -15.0625 C 5.347656 -14.726562 3.949219 -14.753906 2.210938 -15.0625 C 2.378906 -12.039062 2.492188 -6.101562 2.492188 -1.597656 C 2.492188 1.933594 0.867188 2.773438 -1.121094 2.773438 C -1.902344 2.773438 -2.996094 2.40625 -3.164062 2.210938 C -3.050781 3.332031 -3.050781 4.171875 -3.164062 5.320312 C -1.933594 5.824219 -0.757812 6.019531 0.421875 6.019531 Z M 0.421875 6.019531 "/></g></g></g><g fill="#000000" fill-opacity="1"><g transform="translate(158.777143, 224.771016)"><g><path d="M 19.878906 0 C 19.121094 -2.4375 18.953125 -5.066406 18.925781 -8.652344 C 18.925781 -13.746094 15.734375 -15.539062 10.246094 -15.539062 C 6.578125 -15.539062 3.808594 -14.644531 1.707031 -13.664062 C 1.902344 -12.710938 1.902344 -10.75 1.707031 -9.660156 C 3.332031 -11.226562 6.355469 -12.402344 9.601562 -12.402344 C 13.636719 -12.402344 14.503906 -10.75 14.644531 -8.230469 L 9.769531 -8.230469 C 4.03125 -8.230469 1.230469 -6.496094 1.230469 -3.75 C 1.230469 -1.398438 3.191406 0.421875 7.28125 0.421875 C 11.113281 0.421875 13.128906 -1.121094 14.699219 -3.472656 C 14.78125 -2.351562 14.949219 -1.175781 15.34375 0 Z M 9.464844 -2.546875 C 7.167969 -2.546875 5.964844 -3.332031 5.964844 -4.675781 C 5.964844 -6.382812 8.148438 -7.054688 12.289062 -7.054688 L 14.671875 -7.054688 L 14.671875 -6.578125 C 14.671875 -5.824219 14.644531 -4.984375 14.671875 -4.117188 C 13.242188 -3.164062 11.480469 -2.546875 9.464844 -2.546875 Z M 9.464844 -2.546875 "/></g></g></g><g fill="#000000" fill-opacity="1"><g transform="translate(179.85827, 224.771016)"><g><path d="M 10.332031 0.390625 C 15.539062 0.390625 18.730469 -1.035156 18.730469 -4.535156 C 18.730469 -11.589844 5.460938 -6.664062 5.460938 -10.722656 C 5.460938 -12.066406 6.777344 -12.625 9.601562 -12.625 C 12.933594 -12.625 15.707031 -11.703125 17.945312 -10.582031 C 17.527344 -12.207031 17.5 -13.296875 17.863281 -14.308594 C 15.203125 -15.035156 13.019531 -15.539062 9.855469 -15.539062 C 6.664062 -15.539062 1.0625 -15.175781 1.0625 -10.722656 C 1.0625 -3.835938 14.25 -8.371094 14.25 -4.589844 C 14.25 -3.359375 12.878906 -2.6875 10.191406 -2.6875 C 7 -2.6875 3.21875 -3.613281 1.398438 -5.066406 C 1.765625 -4.226562 1.765625 -2.40625 1.398438 -1.371094 C 3.75 -0.167969 7.167969 0.390625 10.332031 0.390625 Z M 10.332031 0.390625 "/></g></g></g><g fill="#000000" fill-opacity="1"><g transform="translate(199.595573, 224.771016)"><g/></g></g><g fill="#000000" fill-opacity="1"><g transform="translate(207.994426, 224.771016)"><g><path d="M 10.164062 0 L 15.484375 0 C 15.203125 -4.367188 15.117188 -11.925781 15.257812 -17.695312 C 19.402344 -17.636719 22.425781 -17.386719 25.367188 -16.9375 C 25.140625 -18.253906 25.140625 -19.542969 25.367188 -20.859375 C 16.125 -20.632812 9.546875 -20.632812 0.28125 -20.859375 C 0.503906 -19.542969 0.503906 -18.253906 0.28125 -16.9375 C 3.191406 -17.386719 6.214844 -17.636719 10.332031 -17.695312 C 10.472656 -11.953125 10.441406 -4.367188 10.164062 0 Z M 10.164062 0 "/></g></g></g><g fill="#000000" fill-opacity="1"><g transform="translate(233.638929, 224.771016)"><g><path d="M 19.765625 -5.207031 C 17.945312 -3.722656 14.476562 -2.828125 11.785156 -2.773438 C 7.753906 -2.714844 5.992188 -4.394531 5.628906 -7 C 8.511719 -7.082031 13.296875 -7.082031 19.652344 -6.972656 C 20.242188 -12.597656 15.847656 -15.59375 10.246094 -15.59375 C 4.5625 -15.59375 0.980469 -12.625 0.980469 -7.585938 C 0.980469 -2.605469 4.480469 0.390625 11.28125 0.390625 C 14.277344 0.390625 17.386719 -0.195312 19.765625 -1.371094 C 19.515625 -2.40625 19.515625 -4.144531 19.765625 -5.207031 Z M 10.246094 -12.597656 C 12.933594 -12.597656 14.753906 -11.113281 15.089844 -8.34375 C 11.816406 -8.289062 8.257812 -8.289062 5.570312 -8.371094 C 5.710938 -11.144531 7.449219 -12.597656 10.246094 -12.597656 Z M 10.246094 -12.597656 "/></g></g></g><g fill="#000000" fill-opacity="1"><g transform="translate(254.748035, 224.771016)"><g><path d="M 6.972656 0 C 6.523438 -1.960938 6.523438 -3.722656 6.523438 -5.683594 C 6.523438 -9.183594 8.148438 -11.199219 11.339844 -11.199219 C 12.039062 -11.199219 12.933594 -11.058594 13.972656 -10.75 C 13.605469 -12.402344 13.605469 -14.109375 13.972656 -15.285156 C 11.339844 -15.929688 8.007812 -14.277344 6.46875 -9.492188 L 6.101562 -9.492188 C 6.1875 -11.589844 6.382812 -13.355469 6.804688 -15.539062 C 5.597656 -15.007812 3.554688 -14.671875 1.734375 -14.558594 C 2.378906 -9.660156 2.378906 -4.648438 1.734375 0 Z M 6.972656 0 "/></g></g></g><g fill="#000000" fill-opacity="1"><g transform="translate(269.166079, 224.771016)"><g><path d="M 19.765625 -5.207031 C 17.945312 -3.722656 14.476562 -2.828125 11.785156 -2.773438 C 7.753906 -2.714844 5.992188 -4.394531 5.628906 -7 C 8.511719 -7.082031 13.296875 -7.082031 19.652344 -6.972656 C 20.242188 -12.597656 15.847656 -15.59375 10.246094 -15.59375 C 4.5625 -15.59375 0.980469 -12.625 0.980469 -7.585938 C 0.980469 -2.605469 4.480469 0.390625 11.28125 0.390625 C 14.277344 0.390625 17.386719 -0.195312 19.765625 -1.371094 C 19.515625 -2.40625 19.515625 -4.144531 19.765625 -5.207031 Z M 10.246094 -12.597656 C 12.933594 -12.597656 14.753906 -11.113281 15.089844 -8.34375 C 11.816406 -8.289062 8.257812 -8.289062 5.570312 -8.371094 C 5.710938 -11.144531 7.449219 -12.597656 10.246094 -12.597656 Z M 10.246094 -12.597656 "/></g></g></g><g fill="#000000" fill-opacity="1"><g transform="translate(290.275209, 224.771016)"><g><path d="M 1.203125 0 L 17.835938 0 C 17.722656 -1.316406 17.667969 -2.351562 17.835938 -3.949219 C 14.753906 -3.613281 10.554688 -3.277344 6.804688 -3.277344 L 6.804688 -3.582031 C 9.742188 -6.074219 13.664062 -9.070312 17.636719 -11.675781 C 17.527344 -13.019531 17.527344 -14.195312 17.636719 -15.316406 C 13.4375 -14.867188 5.597656 -14.867188 1.175781 -15.316406 C 1.289062 -13.972656 1.289062 -12.65625 1.175781 -11.3125 C 4.480469 -11.480469 8.316406 -11.757812 12.207031 -11.757812 L 12.207031 -11.394531 C 9.070312 -8.679688 4.984375 -5.429688 1.203125 -2.910156 C 1.316406 -1.765625 1.316406 -0.925781 1.203125 0 Z M 1.203125 0 "/></g></g></g><g fill="#000000" fill-opacity="1"><g transform="translate(309.284622, 224.771016)"><g><path d="M 19.878906 0 C 19.121094 -2.4375 18.953125 -5.066406 18.925781 -8.652344 C 18.925781 -13.746094 15.734375 -15.539062 10.246094 -15.539062 C 6.578125 -15.539062 3.808594 -14.644531 1.707031 -13.664062 C 1.902344 -12.710938 1.902344 -10.75 1.707031 -9.660156 C 3.332031 -11.226562 6.355469 -12.402344 9.601562 -12.402344 C 13.636719 -12.402344 14.503906 -10.75 14.644531 -8.230469 L 9.769531 -8.230469 C 4.03125 -8.230469 1.230469 -6.496094 1.230469 -3.75 C 1.230469 -1.398438 3.191406 0.421875 7.28125 0.421875 C 11.113281 0.421875 13.128906 -1.121094 14.699219 -3.472656 C 14.78125 -2.351562 14.949219 -1.175781 15.34375 0 Z M 9.464844 -2.546875 C 7.167969 -2.546875 5.964844 -3.332031 5.964844 -4.675781 C 5.964844 -6.382812 8.148438 -7.054688 12.289062 -7.054688 L 14.671875 -7.054688 L 14.671875 -6.578125 C 14.671875 -5.824219 14.644531 -4.984375 14.671875 -4.117188 C 13.242188 -3.164062 11.480469 -2.546875 9.464844 -2.546875 Z M 9.464844 -2.546875 "/></g></g></g><g fill="#000000" fill-opacity="1"><g transform="translate(155.718744, 253.371034)"><g><path d="M 1.40625 0 L 5.648438 0 C 9.535156 0 11.261719 -2.785156 11.261719 -5.582031 C 11.261719 -8.398438 9.519531 -11.199219 5.648438 -11.199219 L 1.40625 -11.199219 Z M 3.183594 -1.726562 L 3.183594 -9.488281 L 5.648438 -9.488281 C 8.335938 -9.488281 9.488281 -7.503906 9.488281 -5.597656 C 9.488281 -3.664062 8.335938 -1.726562 5.648438 -1.726562 Z M 3.183594 -1.726562 "/></g></g></g><g fill="#000000" fill-opacity="1"><g transform="translate(167.71586, 253.371034)"><g><path d="M 4.894531 0.222656 C 6.109375 0.222656 7.472656 -0.207031 8.285156 -1.121094 L 7.214844 -2.160156 C 6.71875 -1.601562 5.742188 -1.3125 4.925781 -1.3125 C 3.472656 -1.3125 2.496094 -2.078125 2.351562 -3.296875 L 8.75 -3.296875 C 8.765625 -3.535156 8.78125 -3.777344 8.78125 -4 C 8.78125 -6.71875 7.136719 -8.0625 4.785156 -8.0625 C 2.320312 -8.0625 0.640625 -6.351562 0.640625 -3.953125 C 0.640625 -1.421875 2.304688 0.222656 4.894531 0.222656 Z M 2.382812 -4.6875 C 2.640625 -5.949219 3.617188 -6.589844 4.832031 -6.589844 C 6.175781 -6.589844 7.054688 -5.949219 7.167969 -4.6875 Z M 2.382812 -4.6875 "/></g></g></g><g fill="#000000" fill-opacity="1"><g transform="translate(177.025628, 253.371034)"><g><path d="M 1.183594 0 L 2.832031 0 L 2.832031 -11.199219 L 1.183594 -11.199219 Z M 1.183594 0 "/></g></g></g><g fill="#000000" fill-opacity="1"><g transform="translate(181.040661, 253.371034)"><g><path d="M 1.953125 -9.183594 C 2.464844 -9.183594 2.976562 -9.519531 2.976562 -10.207031 C 2.976562 -10.894531 2.464844 -11.214844 1.953125 -11.214844 C 1.441406 -11.214844 0.929688 -10.894531 0.929688 -10.207031 C 0.929688 -9.519531 1.441406 -9.183594 1.953125 -9.183594 Z M 1.121094 0 L 2.765625 0 L 2.765625 -7.902344 L 1.121094 -7.902344 Z M 1.121094 0 "/></g></g></g><g fill="#000000" fill-opacity="1"><g transform="translate(184.927727, 253.371034)"><g><path d="M 3.648438 0 L 5.457031 0 L 8.796875 -7.902344 L 6.992188 -7.902344 L 5.808594 -4.976562 L 4.558594 -1.726562 L 3.167969 -5.296875 L 2.113281 -7.902344 L 0.289062 -7.902344 Z M 3.648438 0 "/></g></g></g><g fill="#000000" fill-opacity="1"><g transform="translate(194.013545, 253.371034)"><g><path d="M 4.894531 0.222656 C 6.109375 0.222656 7.472656 -0.207031 8.285156 -1.121094 L 7.214844 -2.160156 C 6.71875 -1.601562 5.742188 -1.3125 4.925781 -1.3125 C 3.472656 -1.3125 2.496094 -2.078125 2.351562 -3.296875 L 8.75 -3.296875 C 8.765625 -3.535156 8.78125 -3.777344 8.78125 -4 C 8.78125 -6.71875 7.136719 -8.0625 4.785156 -8.0625 C 2.320312 -8.0625 0.640625 -6.351562 0.640625 -3.953125 C 0.640625 -1.421875 2.304688 0.222656 4.894531 0.222656 Z M 2.382812 -4.6875 C 2.640625 -5.949219 3.617188 -6.589844 4.832031 -6.589844 C 6.175781 -6.589844 7.054688 -5.949219 7.167969 -4.6875 Z M 2.382812 -4.6875 "/></g></g></g><g fill="#000000" fill-opacity="1"><g transform="translate(203.323313, 253.371034)"><g><path d="M 1.121094 0 L 2.765625 0 L 2.765625 -4.269531 C 2.765625 -5.726562 3.757812 -6.429688 4.894531 -6.429688 C 5.519531 -6.429688 5.886719 -6.269531 6.285156 -5.949219 L 7.039062 -7.390625 C 6.589844 -7.789062 5.855469 -8.0625 5.085938 -8.0625 C 4.238281 -8.0625 3.34375 -7.855469 2.765625 -6.847656 L 2.65625 -7.902344 L 1.121094 -7.902344 Z M 1.121094 0 "/></g></g></g><g fill="#000000" fill-opacity="1"><g transform="translate(210.361624, 253.371034)"><g><path d="M 1.871094 3.679688 L 3.695312 3.679688 L 8.671875 -7.902344 L 6.832031 -7.902344 L 5.261719 -4.078125 L 4.414062 -1.917969 L 2.273438 -7.902344 L 0.351562 -7.902344 L 3.503906 -0.113281 Z M 1.871094 3.679688 "/></g></g></g><g fill="#000000" fill-opacity="1"><g transform="translate(107.043747, 170.77093)"><g><path d="M 0.878906 0 L 6.046875 0 L 6.046875 -1.101562 L 2 -1.101562 L 2 -2.980469 L 5.859375 -2.980469 L 5.859375 -4.019531 L 2 -4.019531 L 2 -5.910156 L 6.019531 -5.910156 L 6.019531 -7 L 0.878906 -7 Z M 0.878906 0 "/></g></g></g><g fill="#000000" fill-opacity="1"><g transform="translate(113.651142, 170.77093)"><g><path d="M 3.320312 0.140625 C 4.777344 0.140625 6.21875 -0.449219 6.21875 -2.019531 C 6.21875 -3.570312 4.847656 -3.960938 3.410156 -4.167969 C 2.488281 -4.300781 1.710938 -4.488281 1.710938 -5.167969 C 1.710938 -5.769531 2.390625 -6.160156 3.328125 -6.160156 C 4.058594 -6.160156 4.730469 -5.859375 5.058594 -5.367188 L 5.910156 -5.9375 C 5.320312 -6.878906 4.308594 -7.117188 3.300781 -7.117188 C 2.019531 -7.117188 0.601562 -6.527344 0.601562 -5.1875 C 0.601562 -3.6875 1.917969 -3.347656 3.308594 -3.148438 C 4.300781 -3.007812 5.097656 -2.738281 5.097656 -2.019531 C 5.097656 -1.128906 4.167969 -0.859375 3.328125 -0.859375 C 2.519531 -0.859375 1.660156 -1.160156 1.148438 -2.007812 L 0.308594 -1.449219 C 0.949219 -0.269531 1.96875 0.140625 3.320312 0.140625 Z M 3.320312 0.140625 "/></g></g></g><g fill="#000000" fill-opacity="1"><g transform="translate(120.248535, 170.77093)"><g><path d="M 2.46875 0 L 3.597656 0 L 3.597656 -5.988281 L 5.886719 -5.988281 L 5.886719 -7 L 0.171875 -7 L 0.171875 -5.988281 L 2.46875 -5.988281 Z M 2.46875 0 "/></g></g></g><g fill="#000000" fill-opacity="1"><g transform="translate(126.306144, 170.77093)"><g><path d="M 1.21875 0.0898438 C 1.53125 0.0898438 1.847656 -0.128906 1.847656 -0.550781 C 1.847656 -0.96875 1.53125 -1.179688 1.21875 -1.179688 C 0.898438 -1.179688 0.578125 -0.96875 0.578125 -0.550781 C 0.578125 -0.128906 0.898438 0.0898438 1.21875 0.0898438 Z M 1.21875 0.0898438 "/></g></g></g><g fill="#000000" fill-opacity="1"><g transform="translate(243.478128, 170.77093)"><g><path d="M 0.578125 0 L 6.167969 0 L 6.167969 -1.050781 L 1.660156 -1.050781 L 1.660156 -1.769531 C 1.660156 -2.679688 2.710938 -2.839844 3.398438 -2.839844 C 4.808594 -2.839844 6.167969 -3.277344 6.167969 -4.957031 C 6.167969 -6.566406 4.769531 -7.089844 3.460938 -7.089844 C 2.140625 -7.089844 0.71875 -6.609375 0.609375 -5.007812 L 1.730469 -5.007812 C 1.757812 -5.828125 2.648438 -6.117188 3.460938 -6.117188 C 4.308594 -6.117188 5.070312 -5.808594 5.070312 -4.9375 C 5.070312 -4.027344 4.019531 -3.828125 3.390625 -3.828125 C 2.03125 -3.828125 0.578125 -3.371094 0.578125 -1.769531 Z M 0.578125 0 "/></g></g></g><g fill="#000000" fill-opacity="1"><g transform="translate(250.225461, 170.77093)"><g><path d="M 3.5 0.140625 C 4.957031 0.140625 6.429688 -0.859375 6.429688 -2.878906 L 6.429688 -4.097656 C 6.429688 -6.117188 4.957031 -7.117188 3.5 -7.117188 C 2.03125 -7.117188 0.570312 -6.117188 0.570312 -4.097656 L 0.570312 -2.878906 C 0.570312 -0.859375 2.03125 0.140625 3.5 0.140625 Z M 3.5 -0.898438 C 2.589844 -0.898438 1.691406 -1.558594 1.691406 -2.878906 L 1.691406 -4.097656 C 1.691406 -5.410156 2.589844 -6.046875 3.488281 -6.046875 C 4.410156 -6.046875 5.308594 -5.398438 5.308594 -4.097656 L 5.308594 -2.878906 C 5.308594 -1.558594 4.410156 -0.898438 3.5 -0.898438 Z M 3.5 -0.898438 "/></g></g></g><g fill="#000000" fill-opacity="1"><g transform="translate(257.222699, 170.77093)"><g><path d="M 0.578125 0 L 6.167969 0 L 6.167969 -1.050781 L 1.660156 -1.050781 L 1.660156 -1.769531 C 1.660156 -2.679688 2.710938 -2.839844 3.398438 -2.839844 C 4.808594 -2.839844 6.167969 -3.277344 6.167969 -4.957031 C 6.167969 -6.566406 4.769531 -7.089844 3.460938 -7.089844 C 2.140625 -7.089844 0.71875 -6.609375 0.609375 -5.007812 L 1.730469 -5.007812 C 1.757812 -5.828125 2.648438 -6.117188 3.460938 -6.117188 C 4.308594 -6.117188 5.070312 -5.808594 5.070312 -4.9375 C 5.070312 -4.027344 4.019531 -3.828125 3.390625 -3.828125 C 2.03125 -3.828125 0.578125 -3.371094 0.578125 -1.769531 Z M 0.578125 0 "/></g></g></g><g fill="#000000" fill-opacity="1"><g transform="translate(263.970032, 170.77093)"><g><path d="M 0.578125 0 L 6.167969 0 L 6.167969 -1.050781 L 1.660156 -1.050781 L 1.660156 -1.769531 C 1.660156 -2.679688 2.710938 -2.839844 3.398438 -2.839844 C 4.808594 -2.839844 6.167969 -3.277344 6.167969 -4.957031 C 6.167969 -6.566406 4.769531 -7.089844 3.460938 -7.089844 C 2.140625 -7.089844 0.71875 -6.609375 0.609375 -5.007812 L 1.730469 -5.007812 C 1.757812 -5.828125 2.648438 -6.117188 3.460938 -6.117188 C 4.308594 -6.117188 5.070312 -5.808594 5.070312 -4.9375 C 5.070312 -4.027344 4.019531 -3.828125 3.390625 -3.828125 C 2.03125 -3.828125 0.578125 -3.371094 0.578125 -1.769531 Z M 0.578125 0 "/></g></g></g></svg>